<svg version="1.1" id="Layer_1" xmlns="http://www.w3.org/2000/svg" xmlns:xlink="http://www.w3.org/1999/xlink" x="0px" y="0px"
	 width="100%" viewBox="0 0 600 600" enable-background="new 0 0 600 600" xml:space="preserve">
<path fill="#000000" opacity="1.000000" stroke="none" 
	d="
M601.000000,228.000000 
	C601.000000,352.666656 601.000000,476.833344 601.000000,601.000000 
	C401.000000,601.000000 201.000000,601.000000 1.000000,601.000000 
	C1.000000,401.000000 1.000000,201.000000 1.000000,1.000000 
	C201.000000,1.000000 401.000000,1.000000 601.000000,1.000000 
	C601.000000,76.500000 601.000000,152.000000 601.000000,228.000000 
M393.612457,56.388134 
	C383.769592,51.575985 373.926758,46.763840 363.654083,41.408279 
	C353.131500,36.250099 342.608917,31.091923 331.638214,25.408628 
	C322.315002,20.710726 313.021301,15.952146 303.634155,11.385714 
	C302.347565,10.759856 300.298126,10.486002 299.106415,11.073167 
	C289.314636,15.897614 279.642334,20.964460 269.221497,26.055664 
	C268.760101,26.236198 268.281189,26.381680 267.839783,26.602247 
	C207.354126,56.827484 146.869690,87.055222 86.397896,117.308228 
	C85.079010,117.968040 83.906250,118.919968 81.986427,119.895515 
	C71.845337,124.855698 61.691299,129.789948 51.591034,134.831909 
	C50.885303,135.184204 50.578022,136.334702 50.008957,138.034225 
	C50.061214,150.076965 50.113472,162.119720 50.039906,175.070129 
	C50.082466,187.103409 50.125027,199.136688 50.046230,212.078827 
	C50.070492,224.055176 50.094749,236.031540 50.012054,248.933777 
	C50.094479,261.578094 50.176907,274.222443 50.087994,287.815948 
	C50.105011,299.871216 50.122028,311.926514 50.055721,324.917908 
	C50.070713,337.283508 50.085701,349.649139 50.040958,362.948425 
	C50.081234,375.008881 50.121513,387.069336 50.052967,400.040253 
	C50.035839,410.697693 50.112511,421.356628 49.939766,432.011536 
	C49.892906,434.901855 50.823563,436.571228 53.434277,437.822205 
	C62.991901,442.401855 72.465614,447.156677 82.600494,452.189606 
	C92.726059,457.154694 102.851631,462.119781 113.395775,467.624969 
	C123.574585,472.717010 133.753387,477.809021 144.571518,483.215729 
	C155.065811,488.449066 165.560120,493.682373 176.669647,499.247284 
	C186.751526,504.203247 196.833405,509.159210 207.344437,514.658203 
	C217.868195,519.820984 228.391953,524.983826 239.328690,530.704285 
	C249.536118,535.783997 259.743561,540.863647 270.587463,546.256836 
	C280.756622,551.131348 290.925751,556.005920 301.811707,560.914307 
	C312.220551,555.647522 322.629395,550.380737 333.753204,544.977234 
	C343.844482,539.930298 353.935791,534.883301 364.701660,529.690857 
	C374.837250,524.492798 384.972870,519.294739 395.810059,513.954773 
	C406.207581,508.668762 416.605103,503.382751 427.728699,497.984985 
	C437.830750,492.939056 447.932800,487.893127 458.717743,482.710358 
	C469.147369,477.421021 479.576996,472.131683 490.699188,466.733917 
	C493.765991,465.167114 496.849304,463.631592 499.896301,462.027252 
	C507.285858,458.136475 514.658508,454.213684 522.645691,450.170990 
	C531.736145,445.784302 540.860962,441.465637 549.870239,436.918121 
	C550.906799,436.394897 551.894043,434.597839 551.897949,433.388092 
	C551.934204,422.120178 551.750183,410.851532 551.876282,398.729797 
	C551.866272,373.822174 551.856262,348.914520 551.973694,323.076202 
	C551.940979,311.058105 551.908264,299.039978 551.988647,286.088013 
	C551.945129,273.410736 551.901672,260.733459 551.980835,247.118912 
	C551.924133,235.407623 551.867432,223.696350 551.960815,211.060165 
	C551.906921,199.026138 551.853027,186.992111 551.957397,174.037872 
	C551.942383,161.727570 551.927368,149.417252 551.872925,136.399490 
	C541.270752,130.922058 530.668518,125.444626 519.643127,119.419716 
	C509.411591,114.316490 499.180054,109.213257 488.334320,103.770714 
	C478.247040,98.831696 468.159760,93.892677 457.644257,88.410973 
	C447.109833,83.267838 436.575439,78.124695 425.674469,72.389763 
	C415.121277,67.239998 404.568085,62.090233 393.612457,56.388134 
z"/>
<path fill="#D5C601" opacity="1.000000" stroke="none" 
	d="
M551.810791,211.985077 
	C551.867432,223.696350 551.924133,235.407623 551.614807,247.730011 
	C541.329895,253.534225 531.411011,258.727325 521.092651,263.917114 
	C510.355927,269.078186 500.018768,274.242523 489.342834,279.546387 
	C478.541443,284.977814 468.078827,290.269775 457.261597,295.639709 
	C446.931671,300.778381 436.956329,305.839142 426.670288,310.927673 
	C425.851929,311.280304 425.344330,311.605103 424.485352,311.976868 
	C414.381012,316.989136 404.628082,321.954468 394.522186,326.955139 
	C384.081848,332.073853 373.994476,337.157257 363.574432,342.305237 
	C353.119995,347.559204 342.998260,352.748596 332.583466,357.963898 
	C331.814697,358.297485 331.338989,358.605164 330.511780,358.969360 
	C320.436005,363.671722 310.711731,368.317627 300.990784,372.497192 
	C301.067200,360.023682 301.140350,348.016571 301.551392,335.953094 
	C322.659882,325.561890 343.430511,315.226990 364.507324,304.754944 
	C374.909393,299.409576 385.005219,294.201355 395.453064,288.944550 
	C406.158478,283.606750 416.511841,278.317505 427.248199,273.066132 
	C437.710815,268.052124 447.790405,263.000244 458.204102,257.828583 
	C469.033386,252.464584 479.528595,247.220352 490.339233,241.833618 
	C500.809814,236.458069 510.964935,231.225052 521.470581,225.941498 
	C526.420715,223.654175 530.987305,221.346069 535.628601,219.199387 
	C540.988342,216.720367 546.413818,214.383606 551.810791,211.985077 
z"/>
<path fill="#C2B405" opacity="1.000000" stroke="none" 
	d="
M301.213501,336.009430 
	C301.140350,348.016571 301.067200,360.023682 301.035400,372.604095 
	C301.076721,373.177368 301.107391,373.406860 300.755310,373.259827 
	C290.596527,368.392059 280.789856,363.671356 270.759521,358.695496 
	C260.002228,353.213379 249.468658,347.986389 238.717392,342.518494 
	C228.016159,337.154572 217.532608,332.031616 206.818756,326.656403 
	C196.478806,321.463440 186.369186,316.522705 176.022873,311.346710 
	C165.231750,305.819763 154.677322,300.528076 143.814117,295.039368 
	C133.371033,289.866150 123.236732,284.890015 112.871109,279.657440 
	C102.801414,274.516266 92.963036,269.631531 82.886253,264.501190 
	C71.804901,258.839722 60.961956,253.423798 50.119011,248.007889 
	C50.094749,236.031540 50.070492,224.055176 50.423187,211.734177 
	C61.112873,216.552917 71.425606,221.716309 82.075256,227.028717 
	C92.593437,232.116211 102.774689,237.054688 113.175980,242.257874 
	C123.573982,247.667419 133.751938,252.812256 144.251709,258.105713 
	C149.424225,260.691376 154.231430,263.220367 159.137207,265.540955 
	C164.605072,268.127411 170.162537,270.524414 175.863281,273.314880 
	C186.305405,278.761414 196.565247,283.896942 207.057190,289.296295 
	C217.801178,294.631165 228.313065,299.702209 239.046432,305.061890 
	C249.627533,310.532990 259.987152,315.715424 270.626343,321.078125 
	C280.926575,326.167480 290.947205,331.076569 301.031067,335.973297 
	C301.094238,335.960968 301.213501,336.009430 301.213501,336.009430 
z"/>
<path fill="#40301B" opacity="1.000000" stroke="none" 
	d="
M82.665329,119.735634 
	C83.906250,118.919968 85.079010,117.968040 86.397896,117.308228 
	C146.869690,87.055222 207.354126,56.827484 267.839783,26.602247 
	C268.281189,26.381680 268.760101,26.236198 269.900909,26.158009 
	C278.811707,30.387291 287.074860,34.453133 295.245056,38.697849 
	C296.704742,39.456219 297.779602,40.955288 298.832733,42.390743 
	C289.406647,47.411568 280.179993,52.153999 270.593872,56.955711 
	C259.787384,62.323372 249.340378,67.631752 238.536438,72.984703 
	C228.444016,77.983315 218.708542,82.937355 208.613220,87.955185 
	C204.857590,89.672760 201.439178,91.281891 198.069748,92.987801 
	C180.340897,101.963699 162.624435,110.964058 144.545563,119.995056 
	C133.830536,125.343430 123.473618,130.652679 112.764633,135.972092 
	C111.943024,135.988815 111.473495,135.995361 110.953934,135.652802 
	C109.573174,134.188309 108.390968,132.787277 106.886932,132.005203 
	C98.857414,127.830055 90.747459,123.809593 82.665329,119.735634 
z"/>
<path fill="#9E7D49" opacity="1.000000" stroke="none" 
	d="
M551.846252,324.006897 
	C551.856262,348.914520 551.866272,373.822174 551.409729,399.246826 
	C541.206299,404.567474 531.469421,409.371124 521.730713,413.741547 
	C521.545593,410.836456 521.214050,408.365265 521.202209,405.892578 
	C521.095337,383.510193 521.044250,361.127502 521.014526,338.438660 
	C521.211304,337.753723 521.370483,337.375000 521.889099,336.991425 
	C526.590881,335.110352 530.942078,333.254456 535.273254,331.352783 
	C540.806030,328.923492 546.322693,326.457245 551.846252,324.006897 
z"/>
<path fill="#68512C" opacity="1.000000" stroke="none" 
	d="
M364.027069,529.836365 
	C353.935791,534.883301 343.844482,539.930298 333.383698,544.567505 
	C333.001709,532.411804 332.989197,520.665833 332.980255,508.459839 
	C332.959106,495.660919 332.934418,483.322052 332.953979,470.740845 
	C332.998169,470.498566 333.063110,470.010284 333.415009,469.957642 
	C338.969635,467.372131 344.136078,464.760895 349.385834,462.329498 
	C354.151855,460.122192 359.008575,458.110687 363.878113,456.477905 
	C363.971008,468.901306 364.011139,480.859619 364.037506,493.297852 
	C364.024841,505.797302 364.025940,517.816833 364.027069,529.836365 
z"/>
<path fill="#675435" opacity="1.000000" stroke="none" 
	d="
M50.065533,248.470825 
	C60.961956,253.423798 71.804901,258.839722 82.589630,264.825165 
	C82.356674,277.268921 82.181931,289.143127 81.629150,301.015533 
	C77.496788,299.339386 73.728424,297.695679 69.991249,295.983917 
	C63.403923,292.966736 56.835602,289.908081 50.259331,286.866760 
	C50.176907,274.222443 50.094479,261.578094 50.065533,248.470825 
z"/>
<path fill="#403423" opacity="1.000000" stroke="none" 
	d="
M50.161789,399.129791 
	C50.121513,387.069336 50.081234,375.008881 50.437847,362.486877 
	C57.270424,365.039703 63.679306,368.113281 70.151871,371.046295 
	C74.038780,372.807678 78.025063,374.349731 81.979561,376.459961 
	C81.992577,389.607727 81.992714,402.285889 81.673599,414.826141 
	C70.956825,409.502075 60.559307,404.315948 50.161789,399.129791 
z"/>
<path fill="#3B2F1C" opacity="1.000000" stroke="none" 
	d="
M81.966675,375.990356 
	C78.025063,374.349731 74.038780,372.807678 70.151871,371.046295 
	C63.679306,368.113281 57.270424,365.039703 50.467712,362.020020 
	C50.085701,349.649139 50.070713,337.283508 50.460487,324.465576 
	C56.994781,326.884979 63.098549,329.813538 69.262787,332.608734 
	C73.449150,334.507050 77.720337,336.218323 81.969238,338.480286 
	C81.978821,351.295044 81.972748,363.642700 81.966675,375.990356 
z"/>
<path fill="#F1E505" opacity="1.000000" stroke="none" 
	d="
M50.165733,174.162445 
	C50.113472,162.119720 50.061214,150.076965 50.410286,137.537140 
	C60.877857,142.082977 70.944107,147.125916 81.107956,152.336029 
	C81.363197,152.714905 81.561432,152.876968 81.863777,153.454773 
	C81.884720,165.284851 81.842148,176.649521 81.615829,188.164703 
	C81.212624,188.554428 81.066162,188.832169 80.629883,189.100433 
	C70.233292,184.089142 60.199516,179.125793 50.165733,174.162445 
z"/>
<path fill="#4D6BE4" opacity="1.000000" stroke="none" 
	d="
M50.102821,174.616287 
	C60.199516,179.125793 70.233292,184.089142 80.813377,189.337524 
	C81.559547,189.620865 81.759407,189.619171 81.883850,189.683701 
	C81.808418,189.749908 81.938850,190.069122 81.955078,190.595917 
	C81.893639,203.041718 81.815987,214.960724 81.738327,226.879700 
	C71.425606,221.716309 61.112873,216.552917 50.483864,211.279755 
	C50.125027,199.136688 50.082466,187.103409 50.102821,174.616287 
z"/>
<path fill="#675435" opacity="1.000000" stroke="none" 
	d="
M238.915726,530.146606 
	C228.391953,524.983826 217.868195,519.820984 207.154938,513.908752 
	C206.981918,501.441010 206.998383,489.722687 207.371979,478.049377 
	C209.380295,478.841980 211.047089,479.557190 212.680069,480.342682 
	C221.448059,484.560120 230.207611,488.795074 238.984863,493.240540 
	C238.999664,493.457092 239.007004,493.891205 238.997620,494.366608 
	C238.964050,506.610199 238.939896,518.378418 238.915726,530.146606 
z"/>
<path fill="#6F5835" opacity="1.000000" stroke="none" 
	d="
M332.976715,508.919800 
	C332.989197,520.665833 333.001709,532.411804 333.026215,544.635864 
	C322.629395,550.380737 312.220551,555.647522 301.422363,560.439575 
	C301.021240,547.976807 301.009491,535.988831 301.357635,523.962280 
	C312.137268,518.922485 322.556976,513.921143 332.976715,508.919800 
z"/>
<path fill="#967D43" opacity="1.000000" stroke="none" 
	d="
M490.006622,466.842346 
	C479.576996,472.131683 469.147369,477.421021 458.363312,482.320892 
	C458.021454,470.014862 458.034027,458.098297 458.342773,445.988586 
	C469.098267,440.549713 479.557587,435.303986 490.012695,430.523254 
	C490.007843,442.939606 490.007233,454.890991 490.006622,466.842346 
z"/>
<path fill="#3E321C" opacity="1.000000" stroke="none" 
	d="
M427.002625,498.096741 
	C416.605103,503.382751 406.207581,508.668762 395.422729,513.550293 
	C395.024445,501.425568 395.013458,489.705322 395.214905,477.719238 
	C405.913177,472.270447 416.399048,467.087524 426.906311,462.378723 
	C426.952667,474.600830 426.977631,486.348816 427.002625,498.096741 
z"/>
<path fill="#403423" opacity="1.000000" stroke="none" 
	d="
M81.953583,338.013245 
	C77.720337,336.218323 73.449150,334.507050 69.262787,332.608734 
	C63.098549,329.813538 56.994781,326.884979 50.502151,323.997498 
	C50.122028,311.926514 50.105011,299.871216 50.173660,287.341370 
	C56.835602,289.908081 63.403923,292.966736 69.991249,295.983917 
	C73.728424,297.695679 77.496788,299.339386 81.627968,301.254395 
	C82.004837,301.495056 81.995872,301.973083 82.000336,302.444519 
	C81.987732,314.615082 81.970657,326.314148 81.953583,338.013245 
z"/>
<path fill="#675435" opacity="1.000000" stroke="none" 
	d="
M50.107376,399.585022 
	C60.559307,404.315948 70.956825,409.502075 81.675980,415.086243 
	C81.999969,415.657379 82.002319,415.830536 82.003876,416.472107 
	C81.992371,428.575531 81.981644,440.210541 81.970917,451.845551 
	C72.465614,447.156677 62.991901,442.401855 53.434277,437.822205 
	C50.823563,436.571228 49.892906,434.901855 49.939766,432.011536 
	C50.112511,421.356628 50.035839,410.697693 50.107376,399.585022 
z"/>
<path fill="#292217" opacity="1.000000" stroke="none" 
	d="
M176.054413,498.915710 
	C165.560120,493.682373 155.065811,488.449066 144.274292,482.599854 
	C143.990067,470.324921 144.003067,458.665863 144.391342,447.012939 
	C150.312836,449.582031 155.841156,452.184753 161.410706,454.695984 
	C166.212738,456.861237 171.061722,458.922333 175.918900,461.352539 
	C175.989334,462.105896 176.030838,462.536102 176.049286,463.436584 
	C176.035629,475.576477 176.045029,487.246094 176.054413,498.915710 
z"/>
<path fill="#816640" opacity="1.000000" stroke="none" 
	d="
M521.492126,263.920410 
	C531.411011,258.727325 541.329895,253.534225 551.553467,248.198654 
	C551.901672,260.733459 551.945129,273.410736 551.563599,286.555542 
	C549.301575,287.741272 547.408630,288.343445 545.637207,289.197662 
	C537.577576,293.084290 529.552185,297.041840 521.479980,300.509033 
	C521.460999,288.002899 521.476562,275.961670 521.492126,263.920410 
z"/>
<path fill="#FFFE00" opacity="1.000000" stroke="none" 
	d="
M551.912354,137.106964 
	C551.927368,149.417252 551.942383,161.727570 551.513611,174.512634 
	C549.236755,175.728760 547.356567,176.372406 545.578613,177.228287 
	C537.511108,181.111923 529.472412,185.055374 521.398438,188.510376 
	C521.377747,176.081192 521.381958,164.118942 521.647461,151.934540 
	C531.909973,146.843918 541.911133,141.975433 551.912354,137.106964 
z"/>
<path fill="#9E7D49" opacity="1.000000" stroke="none" 
	d="
M490.352905,466.788147 
	C490.007233,454.890991 490.007843,442.939606 490.085938,430.316528 
	C490.163361,429.644836 490.317657,429.234344 490.677032,429.199646 
	C501.111267,424.298798 511.186127,419.432678 521.264893,415.062195 
	C521.256531,422.040802 521.138489,428.525818 521.265930,435.006012 
	C521.366272,440.108368 521.769348,445.204712 522.037964,450.303772 
	C514.658508,454.213684 507.285858,458.136475 499.896301,462.027252 
	C496.849304,463.631592 493.765991,465.167114 490.352905,466.788147 
z"/>
<path fill="#886D46" opacity="1.000000" stroke="none" 
	d="
M239.122208,530.425415 
	C238.939896,518.378418 238.964050,506.610199 239.353821,494.440735 
	C249.838776,499.115631 259.958160,504.191772 270.057831,509.454742 
	C270.038147,509.641541 270.005219,510.021729 270.051697,510.487244 
	C270.049103,522.616272 270.000031,534.279846 269.950989,545.943359 
	C259.743561,540.863647 249.536118,535.783997 239.122208,530.425415 
z"/>
<path fill="#765E35" opacity="1.000000" stroke="none" 
	d="
M395.002472,477.985077 
	C395.013458,489.705322 395.024445,501.425568 395.071960,513.621216 
	C384.972870,519.294739 374.837250,524.492798 364.364380,529.763611 
	C364.025940,517.816833 364.024841,505.797302 364.367920,493.217407 
	C374.808899,487.766388 384.905701,482.875732 395.002472,477.985077 
z"/>
<path fill="#796238" opacity="1.000000" stroke="none" 
	d="
M427.365662,498.040894 
	C426.977631,486.348816 426.952667,474.600830 427.148315,462.132202 
	C437.594849,456.334930 447.820740,451.258331 458.046600,446.181763 
	C458.034027,458.098297 458.021454,470.014862 458.021851,482.389282 
	C447.932800,487.893127 437.830750,492.939056 427.365662,498.040894 
z"/>
<path fill="#4A3C26" opacity="1.000000" stroke="none" 
	d="
M144.016052,447.006836 
	C144.003067,458.665863 143.990067,470.324921 143.954636,482.442505 
	C133.753387,477.809021 123.574585,472.717010 113.194061,466.878540 
	C113.001396,454.395081 113.010437,442.658081 113.375183,430.986938 
	C123.778336,435.970734 133.825790,440.888672 143.910126,446.106506 
	C143.970016,446.606567 143.993027,446.806702 144.016052,447.006836 
z"/>
<path fill="#E5D500" opacity="1.000000" stroke="none" 
	d="
M521.423340,188.977310 
	C529.472412,185.055374 537.511108,181.111923 545.578613,177.228287 
	C547.356567,176.372406 549.236755,175.728760 551.434448,174.972748 
	C551.853027,186.992111 551.906921,199.026138 551.885803,211.522614 
	C546.413818,214.383606 540.988342,216.720367 535.628601,219.199387 
	C530.987305,221.346069 526.420715,223.654175 521.447632,225.473877 
	C521.031616,213.295486 520.989014,201.534164 521.012695,189.542145 
	C521.078857,189.311462 521.423340,188.977310 521.423340,188.977310 
z"/>
<path fill="#56442A" opacity="1.000000" stroke="none" 
	d="
M113.019478,430.921082 
	C113.010437,442.658081 113.001396,454.395081 112.984772,466.608459 
	C102.851631,462.119781 92.726059,457.154694 82.285706,452.017578 
	C81.981644,440.210541 81.992371,428.575531 82.380356,416.479858 
	C84.751190,416.801819 86.797890,417.472168 88.729065,418.386536 
	C96.827332,422.220886 104.891029,426.128296 112.987457,430.236542 
	C113.007515,430.464142 113.019478,430.921082 113.019478,430.921082 
z"/>
<path fill="#3B2F1C" opacity="1.000000" stroke="none" 
	d="
M270.269226,546.100098 
	C270.000031,534.279846 270.049103,522.616272 270.429077,510.454559 
	C272.725006,510.740051 274.739166,511.420074 276.646423,512.325439 
	C284.792023,516.192261 292.906067,520.125549 301.024231,524.024902 
	C301.016907,524.015137 300.997711,524.000793 300.997711,524.000793 
	C301.009491,535.988831 301.021240,547.976807 301.063934,560.422668 
	C290.925751,556.005920 280.756622,551.131348 270.269226,546.100098 
z"/>
<path fill="#9A7745" opacity="1.000000" stroke="none" 
	d="
M521.514465,300.973877 
	C529.552185,297.041840 537.577576,293.084290 545.637207,289.197662 
	C547.408630,288.343445 549.301575,287.741272 551.507019,287.022461 
	C551.908264,299.039978 551.940979,311.058105 551.909973,323.541565 
	C546.322693,326.457245 540.806030,328.923492 535.273254,331.352783 
	C530.942078,333.254456 526.590881,335.110352 521.850159,336.525208 
	C521.472656,324.367188 521.493591,312.670502 521.514465,300.973877 
z"/>
<path fill="#473926" opacity="1.000000" stroke="none" 
	d="
M176.362030,499.081482 
	C176.045029,487.246094 176.035629,475.576477 176.418274,463.455902 
	C186.878494,468.004761 196.946686,473.004578 207.014862,478.004395 
	C206.998383,489.722687 206.981918,501.441010 206.940369,513.637207 
	C196.833405,509.159210 186.751526,504.203247 176.362030,499.081482 
z"/>
<path fill="#362813" opacity="1.000000" stroke="none" 
	d="
M522.341797,450.237366 
	C521.769348,445.204712 521.366272,440.108368 521.265930,435.006012 
	C521.138489,428.525818 521.256531,422.040802 521.324341,414.980225 
	C521.379883,414.402557 521.732544,414.174805 521.732544,414.174805 
	C531.469421,409.371124 541.206299,404.567474 551.286621,399.673462 
	C551.750183,410.851532 551.934204,422.120178 551.897949,433.388092 
	C551.894043,434.597839 550.906799,436.394897 549.870239,436.918121 
	C540.860962,441.465637 531.736145,445.784302 522.341797,450.237366 
z"/>
<path fill="#452F15" opacity="1.000000" stroke="none" 
	d="
M81.010353,152.168854 
	C70.944107,147.125916 60.877857,142.082977 50.448532,137.077026 
	C50.578022,136.334702 50.885303,135.184204 51.591034,134.831909 
	C61.691299,129.789948 71.845337,124.855698 82.325882,119.815575 
	C90.747459,123.809593 98.857414,127.830055 106.886932,132.005203 
	C108.390968,132.787277 109.573174,134.188309 110.737312,135.916641 
	C103.336937,140.208908 96.067924,143.821396 88.888916,147.604706 
	C86.458160,148.885696 84.255005,150.598587 81.710953,152.084656 
	C81.474060,152.055191 81.010353,152.168854 81.010353,152.168854 
z"/>
<path fill="#41331F" opacity="1.000000" stroke="none" 
	d="
M551.892639,136.753235 
	C541.911133,141.975433 531.909973,146.843918 521.310303,151.781021 
	C512.235779,147.448425 503.729065,143.104431 495.310455,138.595947 
	C493.695953,137.731339 492.427917,136.219803 491.214539,134.741058 
	C500.974792,129.639328 510.520569,124.803268 520.066345,119.967194 
	C530.668518,125.444626 541.270752,130.922058 551.892639,136.753235 
z"/>
<path fill="#3E311E" opacity="1.000000" stroke="none" 
	d="
M299.032166,42.112350 
	C297.779602,40.955288 296.704742,39.456219 295.245056,38.697849 
	C287.074860,34.453133 278.811707,30.387291 270.257050,26.109055 
	C279.642334,20.964460 289.314636,15.897614 299.106415,11.073167 
	C300.298126,10.486002 302.347565,10.759856 303.634155,11.385714 
	C313.021301,15.952146 322.315002,20.710726 331.538147,25.826288 
	C323.216339,30.368114 314.963684,34.432880 306.801331,38.671440 
	C305.340302,39.430130 304.252472,40.907459 302.596954,42.016556 
	C301.145111,42.024212 300.088654,42.068279 299.032166,42.112350 
z"/>
<path fill="#473926" opacity="1.000000" stroke="none" 
	d="
M426.041016,72.981552 
	C436.575439,78.124695 447.109833,83.267838 457.493530,88.739029 
	C447.198334,94.061142 437.053894,99.055214 426.663452,104.051735 
	C426.417511,104.054192 425.937073,104.160316 425.630981,103.982574 
	C415.199066,98.543961 405.073273,93.283089 395.310120,87.975937 
	C405.795532,82.946960 415.918274,77.964256 426.041016,72.981552 
z"/>
<path fill="#56310C" opacity="1.000000" stroke="none" 
	d="
M426.909424,104.049286 
	C437.053894,99.055214 447.198334,94.061142 457.707642,89.010368 
	C468.159760,93.892677 478.247040,98.831696 488.424438,104.189293 
	C478.664429,109.762154 468.814331,114.916435 458.646729,120.031937 
	C457.903839,119.958763 457.478455,119.924355 456.853668,119.607101 
	C446.739349,114.232597 436.824371,109.140938 426.909424,104.049286 
z"/>
<path fill="#4A3C26" opacity="1.000000" stroke="none" 
	d="
M302.992310,42.052963 
	C304.252472,40.907459 305.340302,39.430130 306.801331,38.671440 
	C314.963684,34.432880 323.216339,30.368114 331.762207,26.088846 
	C342.608917,31.091923 353.131500,36.250099 363.503265,41.736809 
	C353.198578,47.061043 343.044678,52.056747 332.576447,57.044998 
	C331.843414,57.021469 331.424774,57.005390 330.827209,56.693417 
	C321.429657,51.616001 312.210999,46.834480 302.992310,42.052963 
z"/>
<path fill="#764F22" opacity="1.000000" stroke="none" 
	d="
M425.857727,72.685654 
	C415.918274,77.964256 405.795532,82.946960 394.951874,87.935471 
	C384.487366,82.942291 374.743805,77.943291 365.166992,72.647362 
	C367.313324,71.191681 369.254517,69.960587 371.279266,68.887093 
	C378.842987,64.876930 386.434082,60.918381 394.014893,56.940475 
	C404.568085,62.090233 415.121277,67.239998 425.857727,72.685654 
z"/>
<path fill="#5A3712" opacity="1.000000" stroke="none" 
	d="
M393.813660,56.664307 
	C386.434082,60.918381 378.842987,64.876930 371.279266,68.887093 
	C369.254517,69.960587 367.313324,71.191681 364.803711,72.617691 
	C353.812714,67.607445 343.351746,62.329948 332.890808,57.052452 
	C343.044678,52.056747 353.198578,47.061043 363.718170,42.008514 
	C373.926758,46.763840 383.769592,51.575985 393.813660,56.664307 
z"/>
<path fill="#473926" opacity="1.000000" stroke="none" 
	d="
M458.964233,120.070717 
	C468.814331,114.916435 478.664429,109.762154 488.731537,104.358948 
	C499.180054,109.213257 509.411591,114.316490 519.854736,119.693459 
	C510.520569,124.803268 500.974792,129.639328 490.870605,134.741547 
	C489.853668,135.010605 489.395111,135.013519 488.576630,134.979034 
	C478.465851,129.984665 468.715057,125.027702 458.964233,120.070717 
z"/>
<path fill="#3E321C" opacity="1.000000" stroke="none" 
	d="
M394.875183,326.919861 
	C404.628082,321.954468 414.381012,316.989136 424.832397,312.001526 
	C425.992310,311.991608 426.453705,312.003937 426.931183,312.483612 
	C426.978058,336.971497 427.008881,360.992096 427.014099,385.479553 
	C426.960480,398.325104 426.932465,410.703796 426.635742,423.282043 
	C415.939941,428.671204 405.512848,433.860809 395.052002,438.579132 
	C394.951141,426.015533 394.884064,413.923218 394.865417,401.375183 
	C394.900940,376.252930 394.888062,351.586395 394.875183,326.919861 
z"/>
<path fill="#E5D500" opacity="1.000000" stroke="none" 
	d="
M364.201111,304.892090 
	C343.430511,315.226990 322.659882,325.561890 301.551392,335.953094 
	C301.213501,336.009430 301.094238,335.960968 301.046082,335.505646 
	C300.942413,323.085480 300.886841,311.120605 300.893921,298.678955 
	C301.000122,286.167847 301.043640,274.133545 301.403442,261.939148 
	C311.779785,256.837463 321.839844,251.895874 332.127411,246.976379 
	C332.354919,246.998474 332.811584,247.019073 332.869812,247.483200 
	C332.928009,259.512604 332.928009,271.077850 332.928009,283.335724 
	C343.409882,278.271545 353.207642,273.537903 363.081421,269.036316 
	C363.310852,269.565033 363.529144,269.801941 363.881897,270.444397 
	C364.034668,282.237213 364.117889,293.564636 364.201111,304.892090 
z"/>
<path fill="#2A24D9" opacity="1.000000" stroke="none" 
	d="
M457.616211,295.561737 
	C468.078827,290.269775 478.541443,284.977814 489.337402,280.061951 
	C489.697662,304.962219 489.724579,329.486450 489.780640,354.121490 
	C489.809753,354.232330 489.955902,354.408875 489.571869,354.476868 
	C478.805664,359.648743 468.423523,364.752625 457.999023,369.398376 
	C457.933380,365.112732 457.904663,361.285217 457.887573,357.457672 
	C457.795532,336.825684 457.706360,316.193726 457.616211,295.561737 
z"/>
<path fill="#6C5631" opacity="1.000000" stroke="none" 
	d="
M457.261597,295.639709 
	C457.706360,316.193726 457.795532,336.825684 457.887573,357.457672 
	C457.904663,361.285217 457.933380,365.112732 457.959412,369.673584 
	C457.928741,370.589172 457.895355,370.771484 457.493591,370.974731 
	C455.144440,371.799255 453.118530,372.507660 451.190796,373.422913 
	C443.124420,377.252380 435.087463,381.143890 427.039734,385.012695 
	C427.008881,360.992096 426.978058,336.971497 426.956238,312.204834 
	C426.970520,311.272461 426.975769,311.086182 426.981018,310.899872 
	C436.956329,305.839142 446.931671,300.778381 457.261597,295.639709 
z"/>
<path fill="#FFFFFE" opacity="1.000000" stroke="none" 
	d="
M332.876526,357.938019 
	C342.998260,352.748596 353.119995,347.559204 363.608215,342.756409 
	C363.999695,367.683167 364.024719,392.223297 363.806458,416.880371 
	C363.337433,417.259644 363.111694,417.522003 362.537415,417.880066 
	C352.460663,422.651001 342.732422,427.326263 332.983826,431.532959 
	C332.908661,419.714111 332.853882,408.363800 332.874329,396.764587 
	C332.905304,396.348053 332.861053,396.180450 332.882416,395.547516 
	C332.898132,383.059875 332.848206,371.037598 332.872620,358.749939 
	C332.923492,358.302399 332.899994,358.120209 332.876526,357.938019 
z"/>
<path fill="#FFFFFE" opacity="1.000000" stroke="none" 
	d="
M489.751495,354.010681 
	C489.724579,329.486450 489.697662,304.962219 489.676178,279.922455 
	C500.018768,274.242523 510.355927,269.078186 521.092651,263.917114 
	C521.476562,275.961670 521.460999,288.002899 521.479980,300.509003 
	C521.493591,312.670502 521.472656,324.367188 521.490723,336.530060 
	C521.370483,337.375000 521.211304,337.753723 520.650513,338.519073 
	C510.083099,343.940674 499.917297,348.975677 489.751495,354.010681 
z"/>
<path fill="#2A24D9" opacity="1.000000" stroke="none" 
	d="
M364.049713,416.763428 
	C364.024719,392.223297 363.999695,367.683167 363.940918,342.691833 
	C373.994476,337.157257 384.081848,332.073853 394.522186,326.955139 
	C394.888062,351.586395 394.900940,376.252930 394.523682,401.457703 
	C384.105591,406.918457 374.077667,411.840942 364.049713,416.763428 
z"/>
<path fill="#6C5631" opacity="1.000000" stroke="none" 
	d="
M332.798248,359.015289 
	C332.848206,371.037598 332.898132,383.059875 332.609680,395.576904 
	C331.825836,396.356842 331.380371,396.642120 330.580994,396.989532 
	C320.520508,401.732941 310.813995,406.414215 301.076996,410.621735 
	C301.066833,397.900940 301.087097,385.653900 301.107361,373.406860 
	C301.107391,373.406860 301.076721,373.177368 301.032104,373.070465 
	C310.711731,368.317627 320.436005,363.671722 330.834167,358.999542 
	C331.938110,358.987274 332.368195,359.001282 332.798248,359.015289 
z"/>
<path fill="#E5D500" opacity="1.000000" stroke="none" 
	d="
M490.023804,241.976135 
	C479.528595,247.220352 469.033386,252.464584 458.206146,257.363525 
	C457.819641,245.123550 457.765137,233.228867 457.782776,221.117737 
	C457.787140,220.577759 457.841736,220.276230 458.395264,220.002121 
	C469.165344,215.006897 479.558868,210.006241 489.953674,204.952881 
	C489.954926,204.900177 490.055450,204.868484 490.022797,205.344452 
	C490.001343,217.872330 490.012573,229.924225 490.023804,241.976135 
z"/>
<path fill="#E5D500" opacity="1.000000" stroke="none" 
	d="
M426.865173,273.028229 
	C416.511841,278.317505 406.158478,283.606750 395.399384,288.479187 
	C394.967651,276.337067 394.941620,264.611725 394.909119,252.681519 
	C394.902618,252.476654 394.989105,252.073746 395.353760,252.046738 
	C405.561890,247.139404 415.405365,242.259079 425.479370,237.543488 
	C426.067535,237.826767 426.425171,237.945343 426.817688,238.527313 
	C426.856812,250.336563 426.860992,261.682404 426.865173,273.028229 
z"/>
<path fill="#4D6FFE" opacity="1.000000" stroke="none" 
	d="
M394.915619,252.886383 
	C394.941620,264.611725 394.967651,276.337067 395.047363,288.527771 
	C385.005219,294.201355 374.909393,299.409576 364.507324,304.754944 
	C364.117889,293.564636 364.034668,282.237213 363.949524,270.046448 
	C363.939606,268.914124 363.931580,268.645050 363.944153,268.347107 
	C363.964783,268.318268 363.917572,268.265350 364.221649,268.040405 
	C374.655701,262.839111 384.785675,257.862762 394.915619,252.886383 
z"/>
<path fill="#AEF019" opacity="1.000000" stroke="none" 
	d="
M490.339233,241.833618 
	C490.012573,229.924225 490.001343,217.872330 490.348999,205.240936 
	C500.787415,199.698578 510.866943,194.735687 520.946472,189.772827 
	C520.989014,201.534164 521.031616,213.295486 521.097107,225.524429 
	C510.964935,231.225052 500.809814,236.458069 490.339233,241.833618 
z"/>
<path fill="#0400F5" opacity="1.000000" stroke="none" 
	d="
M427.248169,273.066132 
	C426.860992,261.682404 426.856812,250.336563 426.929504,238.278854 
	C426.986938,237.386215 426.967468,237.205444 427.029114,236.830505 
	C427.110229,236.636353 427.133728,236.216156 427.480469,236.123230 
	C437.788330,231.131607 447.749481,226.232880 457.710663,221.334167 
	C457.765137,233.228867 457.819641,245.123550 457.872070,257.483276 
	C447.790405,263.000244 437.710815,268.052124 427.248169,273.066132 
z"/>
<path fill="#78603F" opacity="1.000000" stroke="none" 
	d="
M332.872620,358.749939 
	C332.368195,359.001282 331.938110,358.987274 331.185669,358.943054 
	C331.338989,358.605164 331.814697,358.297485 332.583466,357.963898 
	C332.899994,358.120209 332.923492,358.302399 332.872620,358.749939 
z"/>
<path fill="#453722" opacity="1.000000" stroke="none" 
	d="
M426.670288,310.927673 
	C426.975769,311.086182 426.970520,311.272461 426.940186,311.737549 
	C426.453705,312.003937 425.992310,311.991608 425.183838,311.954590 
	C425.344330,311.605103 425.851929,311.280304 426.670288,310.927673 
z"/>
<path fill="#403423" opacity="1.000000" stroke="none" 
	d="
M270.077515,509.267944 
	C259.958160,504.191772 249.838776,499.115631 239.363205,493.965332 
	C239.007004,493.891205 238.999664,493.457092 238.990906,492.769348 
	C238.925735,479.643250 238.869324,467.204956 238.832260,454.320007 
	C238.771652,441.240601 238.691696,428.607819 238.705933,415.515747 
	C238.717896,403.046478 238.635681,391.036560 238.652817,378.566956 
	C238.813126,366.324707 238.874100,354.542053 238.935074,342.759430 
	C249.468658,347.986389 260.002228,353.213379 270.502014,359.023254 
	C270.413666,372.103088 270.359161,384.600006 270.238007,397.552673 
	C270.280579,410.019928 270.389832,422.031342 270.402283,434.497864 
	C270.229462,459.724609 270.153473,484.496277 270.077515,509.267944 
z"/>
<path fill="#675435" opacity="1.000000" stroke="none" 
	d="
M176.259583,311.581970 
	C186.369186,316.522705 196.478806,321.463440 206.797714,327.133087 
	C207.013626,340.243927 207.020248,352.625824 207.010529,365.475281 
	C207.006454,377.960052 207.018707,389.977325 207.015839,402.463379 
	C206.978241,414.965607 206.955795,426.999084 206.579590,438.976105 
	C201.604813,436.669617 197.018478,434.344513 192.353638,432.189301 
	C186.966736,429.700500 181.510651,427.361450 176.048431,424.636841 
	C175.962952,423.888733 175.913635,423.461182 175.908295,422.562927 
	C175.933716,409.731415 175.915131,397.370605 175.922455,384.541260 
	C175.960892,380.265289 175.969742,376.457855 175.986557,372.650513 
	C176.076477,352.294342 176.168365,331.938141 176.259583,311.581970 
z"/>
<path fill="#423524" opacity="1.000000" stroke="none" 
	d="
M176.022888,311.346680 
	C176.168365,331.938141 176.076477,352.294342 175.986557,372.650513 
	C175.969742,376.457855 175.960892,380.265289 175.575836,384.487610 
	C164.847305,379.938141 154.491287,374.973694 144.083252,369.542206 
	C143.959946,356.724884 143.888687,344.374664 143.875687,331.557556 
	C143.996933,319.139282 144.059906,307.187866 144.122894,295.236420 
	C154.677322,300.528076 165.231750,305.819763 176.022888,311.346680 
z"/>
<path fill="#8F7146" opacity="1.000000" stroke="none" 
	d="
M207.026855,365.007751 
	C207.020248,352.625824 207.013626,340.243927 207.028046,327.385315 
	C217.532608,332.031616 228.016159,337.154572 238.717392,342.518494 
	C238.874100,354.542053 238.813126,366.324707 238.303986,378.559143 
	C235.862259,378.321167 233.787491,377.804199 231.889175,376.911896 
	C223.573853,373.003174 215.309631,368.985748 207.026855,365.007751 
z"/>
<path fill="#E02027" opacity="1.000000" stroke="none" 
	d="
M238.824951,304.773254 
	C228.313065,299.702209 217.801178,294.631165 207.084625,288.824127 
	C206.904572,276.339905 206.929153,264.591675 207.316162,252.918228 
	C217.960281,258.025543 228.242004,263.058075 238.639252,268.306519 
	C238.754776,268.522400 238.976273,268.959137 238.909363,269.426605 
	C238.836609,281.520477 238.830780,293.146851 238.824951,304.773254 
z"/>
<path fill="#D0C205" opacity="1.000000" stroke="none" 
	d="
M175.681000,273.003876 
	C170.162537,270.524414 164.605072,268.127411 159.137207,265.540955 
	C154.231430,263.220367 149.424225,260.691376 144.273102,257.642151 
	C143.988510,244.973541 144.004364,232.917053 144.319565,221.050629 
	C153.065781,225.489777 161.488220,229.788712 169.978577,233.949051 
	C171.846130,234.864151 173.954865,235.287003 176.006973,236.196793 
	C176.066772,236.634216 176.072159,236.811401 176.020294,237.455231 
	C175.869034,249.615860 175.775024,261.309875 175.681000,273.003876 
z"/>
<path fill="#78603F" opacity="1.000000" stroke="none" 
	d="
M270.304688,397.096924 
	C270.359161,384.600006 270.413666,372.103088 270.725677,359.278442 
	C280.789856,363.671356 290.596527,368.392059 300.755310,373.259827 
	C301.087097,385.653900 301.066833,397.900940 301.040894,410.613159 
	C301.035248,411.078369 301.022064,411.007416 300.661133,410.961121 
	C294.514069,408.099945 288.764160,405.207062 282.929474,402.496704 
	C278.780365,400.569366 274.517029,398.888031 270.304688,397.096924 
z"/>
<path fill="#8F7146" opacity="1.000000" stroke="none" 
	d="
M143.814102,295.039368 
	C144.059906,307.187866 143.996933,319.139282 143.515442,331.539673 
	C141.121536,331.188080 139.101242,330.482208 137.178558,329.570465 
	C129.133072,325.755341 121.116859,321.878479 113.043800,317.746826 
	C112.958870,317.285950 112.920067,317.102539 112.916771,316.456787 
	C113.002335,303.967621 113.052383,291.940735 113.102432,279.913879 
	C123.236732,284.890015 133.371033,289.866150 143.814102,295.039368 
z"/>
<path fill="#3B2F1C" opacity="1.000000" stroke="none" 
	d="
M112.871109,279.657440 
	C113.052383,291.940735 113.002335,303.967621 112.568085,316.433655 
	C102.121208,311.906250 92.058540,306.939667 81.995872,301.973083 
	C81.995872,301.973083 82.004837,301.495056 82.006012,301.256195 
	C82.181931,289.143127 82.356674,277.268921 82.828033,265.070740 
	C92.963036,269.631531 102.801414,274.516266 112.871109,279.657440 
z"/>
<path fill="#D0C205" opacity="1.000000" stroke="none" 
	d="
M239.046432,305.061890 
	C238.830780,293.146851 238.836609,281.520477 239.270020,269.482483 
	C249.820984,274.041412 259.944336,279.011902 270.193115,284.039062 
	C270.411713,284.253967 270.529724,284.390717 270.595886,284.947754 
	C270.461731,297.225616 270.404236,309.061737 270.346771,320.897888 
	C259.987152,315.715424 249.627533,310.532990 239.046432,305.061890 
z"/>
<path fill="#A1DA20" opacity="1.000000" stroke="none" 
	d="
M144.020218,220.860565 
	C144.004364,232.917053 143.988510,244.973541 143.951263,257.493561 
	C133.751938,252.812256 123.573982,247.667419 113.190445,241.790192 
	C113.012680,229.306870 113.040504,217.555908 113.412621,205.911469 
	C117.485313,207.834778 121.187485,209.707977 124.948006,211.455643 
	C131.237717,214.378738 137.564682,217.221664 143.941437,220.283325 
	C144.006897,220.468307 144.020218,220.860565 144.020218,220.860565 
z"/>
<path fill="#A338C6" opacity="1.000000" stroke="none" 
	d="
M175.863281,273.314880 
	C175.775024,261.309875 175.869034,249.615860 176.327271,237.607666 
	C186.080093,241.911865 195.468658,246.530258 205.034866,251.397293 
	C205.788818,251.840347 206.365143,252.034775 206.908661,252.383469 
	C206.875854,252.537750 206.953751,252.843445 206.953751,252.843445 
	C206.929153,264.591675 206.904572,276.339905 206.852539,288.560303 
	C196.565247,283.896942 186.305405,278.761414 175.863281,273.314880 
z"/>
<path fill="#D0C205" opacity="1.000000" stroke="none" 
	d="
M113.068329,205.804947 
	C113.040504,217.555908 113.012680,229.306870 112.970398,241.525497 
	C102.774689,237.054688 92.593437,232.116211 82.075256,227.028717 
	C81.815987,214.960724 81.893639,203.041718 82.336617,190.776245 
	C92.785759,195.261444 102.869583,200.093140 112.998749,205.142670 
	C113.044106,205.360504 113.068329,205.804947 113.068329,205.804947 
z"/>
<path fill="#A338C6" opacity="1.000000" stroke="none" 
	d="
M270.626343,321.078156 
	C270.404236,309.061737 270.461731,297.225616 270.964935,285.109375 
	C281.217529,289.604767 291.024414,294.380280 300.831299,299.155762 
	C300.886841,311.120605 300.942413,323.085480 300.982910,335.517975 
	C290.947205,331.076569 280.926575,326.167480 270.626343,321.078156 
z"/>
<path fill="#3E311E" opacity="1.000000" stroke="none" 
	d="
M112.953400,204.924805 
	C102.869583,200.093140 92.785759,195.261444 82.320389,190.249451 
	C81.938850,190.069122 81.808418,189.749908 81.869095,189.280060 
	C81.886368,188.544861 81.842972,188.279541 81.799576,188.014206 
	C81.842148,176.649521 81.884720,165.284851 81.938652,153.242371 
	C81.950012,152.564590 81.947845,152.114120 81.947845,152.114120 
	C84.255005,150.598587 86.458160,148.885696 88.888916,147.604706 
	C96.067924,143.821396 103.336937,140.208908 110.787354,136.265747 
	C111.473495,135.995361 111.943024,135.988815 113.120987,136.009277 
	C123.571404,140.990952 133.313370,145.945633 142.887421,151.208710 
	C134.543121,155.812149 126.333054,160.045181 118.219055,164.455002 
	C116.611397,165.328720 115.372635,166.881180 113.573700,168.299561 
	C113.106888,180.627243 113.030144,192.776031 112.953400,204.924805 
z"/>
<path fill="#B49C62" opacity="1.000000" stroke="none" 
	d="
M144.903671,119.955917 
	C162.624435,110.964058 180.340897,101.963699 198.069748,92.987801 
	C201.439178,91.281891 204.857590,89.672760 208.679672,88.304138 
	C210.545898,89.632133 211.879379,90.883263 213.443665,91.682915 
	C221.599976,95.852394 229.814987,99.907089 237.794922,104.267975 
	C227.713730,109.681404 217.847214,114.828575 207.623672,120.029037 
	C196.849869,125.385216 186.433075,130.688110 175.681152,135.994354 
	C174.899368,135.999496 174.452728,136.001282 173.938751,135.662689 
	C172.413177,134.295364 171.053070,133.076141 169.480301,132.273712 
	C161.317963,128.109238 153.101364,124.051094 144.903671,119.955917 
z"/>
<path fill="#AB8E5B" opacity="1.000000" stroke="none" 
	d="
M238.893387,72.940125 
	C249.340378,67.631752 259.787384,62.323372 270.804443,57.234520 
	C272.955383,58.321465 274.521027,59.217979 276.119568,60.051411 
	C284.406799,64.372139 292.702423,68.676758 300.678955,73.135963 
	C290.243134,78.190224 280.123444,83.095520 269.644897,87.954544 
	C259.155151,82.918884 249.024277,77.929504 238.893387,72.940125 
z"/>
<path fill="#B1945E" opacity="1.000000" stroke="none" 
	d="
M144.545563,119.995056 
	C153.101364,124.051094 161.317963,128.109238 169.480301,132.273712 
	C171.053070,133.076141 172.413177,134.295364 173.721588,135.926208 
	C164.016159,141.367706 154.460541,146.205322 144.596085,151.024323 
	C143.876617,150.970596 143.465973,150.935455 143.055344,150.900314 
	C133.313370,145.945633 123.571404,140.990952 113.473068,135.999084 
	C123.473618,130.652679 133.830536,125.343430 144.545563,119.995056 
z"/>
<path fill="#B1945E" opacity="1.000000" stroke="none" 
	d="
M238.536438,72.984695 
	C249.024277,77.929504 259.155151,82.918884 269.641876,88.204330 
	C269.997711,88.500389 269.993896,89.000000 269.635864,89.046059 
	C259.183777,94.064804 249.089783,99.037498 238.749237,104.007080 
	C238.502686,104.003975 238.009567,104.001717 238.009567,104.001717 
	C229.814987,99.907089 221.599976,95.852394 213.443665,91.682915 
	C211.879379,90.883263 210.545898,89.632133 209.039490,88.240341 
	C218.708542,82.937355 228.444016,77.983315 238.536438,72.984695 
z"/>
<path fill="#A48D59" opacity="1.000000" stroke="none" 
	d="
M300.995117,72.987000 
	C292.702423,68.676758 284.406799,64.372139 276.119568,60.051411 
	C274.521027,59.217979 272.955383,58.321465 271.163940,57.175240 
	C280.179993,52.153999 289.406647,47.411568 298.832733,42.390739 
	C300.088654,42.068279 301.145111,42.024212 302.596954,42.016548 
	C312.210999,46.834480 321.429657,51.616001 330.665222,56.997009 
	C328.865753,58.696587 327.099487,59.891724 325.224243,60.880184 
	C317.511871,64.945480 309.766388,68.947937 301.773621,72.980568 
	C301.341156,72.987411 301.168121,72.987206 300.995117,72.987000 
z"/>
<path fill="#41331F" opacity="1.000000" stroke="none" 
	d="
M489.780640,354.121521 
	C499.917297,348.975677 510.083099,343.940674 520.612915,338.825317 
	C521.044250,361.127502 521.095337,383.510193 521.202209,405.892578 
	C521.214050,408.365265 521.545593,410.836456 521.730713,413.741577 
	C521.732544,414.174805 521.379883,414.402557 521.320435,414.484558 
	C511.186127,419.432678 501.111267,424.298798 490.555084,428.724426 
	C490.029449,418.322479 490.041382,408.360260 489.891266,398.400452 
	C489.862793,396.509949 489.192078,394.629089 489.007324,392.388489 
	C489.417969,390.256714 489.816010,388.481720 489.830902,386.703491 
	C489.921204,375.939026 489.923920,365.173828 489.955902,354.408875 
	C489.955902,354.408875 489.809753,354.232330 489.780640,354.121521 
z"/>
<path fill="#010000" opacity="1.000000" stroke="none" 
	d="
M488.817688,392.743774 
	C489.192078,394.629089 489.862793,396.509949 489.891266,398.400452 
	C490.041382,408.360260 490.029449,418.322479 490.195709,428.759094 
	C490.317657,429.234344 490.163361,429.644836 490.090149,429.851562 
	C479.557587,435.303986 469.098267,440.549713 458.342773,445.988586 
	C447.820740,451.258331 437.594849,456.334930 427.126953,461.658051 
	C416.399048,467.087524 405.913177,472.270447 395.214905,477.719238 
	C384.905701,482.875732 374.808899,487.766388 364.381714,492.737488 
	C364.011139,480.859619 363.971008,468.901306 364.018829,456.238159 
	C364.460571,455.111420 364.814362,454.689453 365.504089,454.144775 
	C375.588623,449.031555 385.337189,444.040985 395.085754,439.050415 
	C405.512848,433.860809 415.939941,428.671204 427.006531,423.236633 
	C438.157593,417.716156 448.669220,412.440674 459.524536,407.079590 
	C469.518036,402.243896 479.167877,397.493835 488.817688,392.743774 
z"/>
<path fill="#362813" opacity="1.000000" stroke="none" 
	d="
M333.063110,470.010284 
	C333.063110,470.010284 332.998169,470.498566 332.605682,470.796570 
	C321.858612,476.057648 311.504028,481.020691 301.097290,485.518738 
	C301.079926,472.686157 301.114685,460.318512 301.496338,447.912231 
	C312.157379,442.936707 322.471558,437.999817 332.850189,433.523438 
	C332.964142,445.992706 333.013611,458.001495 333.063110,470.010284 
z"/>
<path fill="#3D2F1B" opacity="1.000000" stroke="none" 
	d="
M301.149445,485.983734 
	C311.504028,481.020691 321.858612,476.057648 332.561462,471.038879 
	C332.934418,483.322052 332.959106,495.660919 332.980255,508.459808 
	C322.556976,513.921143 312.137268,518.922485 301.357635,523.962280 
	C300.997711,524.000793 301.016907,524.015137 301.010437,523.553040 
	C301.052490,510.721863 301.100983,498.352814 301.149445,485.983734 
z"/>
<path fill="#5F4B2D" opacity="1.000000" stroke="none" 
	d="
M333.415009,469.957642 
	C333.013611,458.001495 332.964142,445.992706 332.897430,433.256104 
	C332.921539,432.352722 332.962860,432.177124 333.004181,432.001526 
	C342.732422,427.326263 352.460663,422.651001 362.848206,418.185272 
	C363.670929,428.485535 363.780121,438.577667 364.046539,448.665680 
	C364.096069,450.541534 364.778076,452.400635 365.168152,454.267456 
	C364.814362,454.689453 364.460571,455.111420 363.966064,455.773132 
	C359.008575,458.110687 354.151855,460.122192 349.385834,462.329498 
	C344.136078,464.760895 338.969635,467.372131 333.415009,469.957642 
z"/>
<path fill="#5D4B30" opacity="1.000000" stroke="none" 
	d="
M82.000336,302.444519 
	C92.058540,306.939667 102.121208,311.906250 112.532570,316.895966 
	C112.920067,317.102539 112.958870,317.285950 113.010567,318.211975 
	C113.038559,343.622375 113.053658,368.290131 113.047180,393.428772 
	C113.006203,405.936066 112.986794,417.972504 112.967392,430.008942 
	C104.891029,426.128296 96.827332,422.220886 88.729065,418.386536 
	C86.797890,417.472168 84.751190,416.801819 82.381149,416.011444 
	C82.002319,415.830536 81.999969,415.657379 81.995239,415.224152 
	C81.992714,402.285889 81.992577,389.607727 81.979553,376.459961 
	C81.972748,363.642700 81.978821,351.295044 81.969238,338.480286 
	C81.970657,326.314148 81.987732,314.615082 82.000336,302.444519 
z"/>
<path fill="#E5D500" opacity="1.000000" stroke="none" 
	d="
M81.710953,152.084656 
	C81.947845,152.114120 81.950012,152.564590 81.875137,152.776978 
	C81.561432,152.876968 81.363197,152.714905 81.107956,152.336029 
	C81.010353,152.168854 81.474060,152.055191 81.710953,152.084656 
z"/>
<path fill="#E5D500" opacity="1.000000" stroke="none" 
	d="
M81.615822,188.164703 
	C81.842972,188.279541 81.886368,188.544861 81.944519,189.213837 
	C81.759407,189.619171 81.559547,189.620865 81.176186,189.385498 
	C81.066162,188.832169 81.212624,188.554428 81.615822,188.164703 
z"/>
<path fill="#56442A" opacity="1.000000" stroke="none" 
	d="
M176.084595,424.957367 
	C181.510651,427.361450 186.966736,429.700500 192.353638,432.189301 
	C197.018478,434.344513 201.604813,436.669617 206.810867,439.231689 
	C217.868240,444.617981 228.340561,449.692322 238.812897,454.766632 
	C238.869324,467.204956 238.925735,479.643250 238.976105,492.552795 
	C230.207611,488.795074 221.448059,484.560120 212.680069,480.342682 
	C211.047089,479.557190 209.380295,478.841980 207.371979,478.049377 
	C196.946686,473.004578 186.878494,468.004761 176.441330,462.985657 
	C176.030838,462.536102 175.989334,462.105896 175.953140,460.881653 
	C176.000488,448.377563 176.042542,436.667450 176.084595,424.957367 
z"/>
<path fill="#33291A" opacity="1.000000" stroke="none" 
	d="
M176.048431,424.636841 
	C176.042542,436.667450 176.000488,448.377563 175.924210,460.558533 
	C171.061722,458.922333 166.212738,456.861237 161.410706,454.695984 
	C155.841156,452.184753 150.312836,449.582031 144.391342,447.012939 
	C143.993027,446.806702 143.970016,446.606567 143.947998,445.657806 
	C143.997803,432.945343 144.046585,420.981537 144.464020,409.020935 
	C150.067780,411.436493 155.288864,413.879883 160.542084,416.252075 
	C165.632294,418.550690 170.755554,420.776093 175.864319,423.033630 
	C175.913635,423.461182 175.962952,423.888733 176.048431,424.636841 
z"/>
<path fill="#3B2F1C" opacity="1.000000" stroke="none" 
	d="
M521.012695,189.542145 
	C510.866943,194.735687 500.787415,199.698578 490.381653,204.764969 
	C490.055450,204.868484 489.954926,204.900177 489.878204,204.489090 
	C489.775970,196.930328 489.832123,189.781113 489.696716,182.635513 
	C489.603607,177.722214 489.244598,172.813965 488.930420,167.570435 
	C487.240265,166.158966 485.702454,164.932816 483.994690,164.027069 
	C475.674194,159.613998 467.308258,155.286606 459.144684,150.634064 
	C469.199493,145.231659 479.068054,140.124039 488.936584,135.016418 
	C489.395111,135.013519 489.853668,135.010605 490.656128,135.007202 
	C492.427917,136.219803 493.695953,137.731339 495.310455,138.595947 
	C503.729065,143.104431 512.235779,147.448425 521.049072,152.003174 
	C521.381958,164.118942 521.377747,176.081192 521.398438,188.510376 
	C521.423340,188.977310 521.078857,189.311462 521.012695,189.542145 
z"/>
<path fill="#93754A" opacity="1.000000" stroke="none" 
	d="
M301.097290,485.518738 
	C301.100983,498.352814 301.052490,510.721863 301.017792,523.562744 
	C292.906067,520.125549 284.792023,516.192261 276.646423,512.325439 
	C274.739166,511.420074 272.725006,510.740051 270.382629,509.989075 
	C270.005219,510.021729 270.038147,509.641541 270.057800,509.454742 
	C270.153473,484.496277 270.229462,459.724609 270.730560,434.500641 
	C272.985229,434.804413 274.855774,435.475250 276.637421,436.331116 
	C284.716003,440.211975 292.769470,444.145020 300.912720,448.036194 
	C300.993469,448.013123 301.149475,447.950897 301.149475,447.950897 
	C301.114685,460.318512 301.079926,472.686157 301.097290,485.518738 
z"/>
<path fill="#816640" opacity="1.000000" stroke="none" 
	d="
M144.095367,409.017700 
	C144.046585,420.981537 143.997803,432.945343 143.911133,445.357910 
	C133.825790,440.888672 123.778336,435.970734 113.375183,430.986938 
	C113.019478,430.921082 113.007515,430.464142 112.987457,430.236542 
	C112.986794,417.972504 113.006203,405.936066 113.397491,393.490356 
	C119.574173,395.918701 125.339371,398.841492 131.197205,401.564972 
	C135.363068,403.501801 139.653778,405.170166 143.931778,407.300659 
	C144.014969,408.101257 144.055161,408.559479 144.095367,409.017700 
z"/>
<path fill="#BD9A64" opacity="1.000000" stroke="none" 
	d="
M302.033081,72.973511 
	C309.766388,68.947937 317.511871,64.945480 325.224243,60.880184 
	C327.099487,59.891724 328.865753,58.696587 330.844116,57.292904 
	C331.424774,57.005390 331.843414,57.021469 332.576447,57.044998 
	C343.351746,62.329948 353.812714,67.607445 364.636932,72.914612 
	C374.743805,77.943291 384.487366,82.942291 394.589233,87.981750 
	C405.073273,93.283089 415.199066,98.543961 425.404755,104.222221 
	C415.652466,109.744034 405.820282,114.848465 395.746704,119.961754 
	C395.505310,119.970612 395.021973,119.969070 394.798889,119.711479 
	C384.055939,114.298492 373.536102,109.143097 362.799438,103.723442 
	C342.399475,93.297295 322.216278,83.135406 302.033081,72.973511 
z"/>
<path fill="#B7955F" opacity="1.000000" stroke="none" 
	d="
M395.988098,119.952904 
	C405.820282,114.848465 415.652466,109.744034 425.710876,104.399963 
	C425.937073,104.160316 426.417511,104.054192 426.663452,104.051743 
	C436.824371,109.140938 446.739349,114.232597 456.642761,119.885696 
	C446.746918,125.298904 436.862640,130.150665 426.622040,134.954132 
	C416.173187,129.921539 406.080658,124.937225 395.988098,119.952904 
z"/>
<path fill="#BF9E65" opacity="1.000000" stroke="none" 
	d="
M426.978333,135.002411 
	C436.862640,130.150665 446.746918,125.298904 456.842133,120.168549 
	C457.478455,119.924355 457.903839,119.958763 458.646729,120.031944 
	C468.715057,125.027702 478.465851,129.984665 488.576630,134.979034 
	C479.068054,140.124039 469.199493,145.231659 458.784943,150.691498 
	C447.791687,156.346176 437.344421,161.648651 426.538269,166.985901 
	C415.124268,172.371872 404.069214,177.723068 392.951233,182.727295 
	C391.313782,181.278046 389.832672,180.000397 388.148712,179.103592 
	C380.462830,175.010300 372.719940,171.023895 365.212677,166.734238 
	C382.477692,157.891434 399.538757,149.335571 416.568329,140.717453 
	C420.098358,138.931030 423.511383,136.913467 426.978333,135.002411 
z"/>
<path fill="#A2854E" opacity="1.000000" stroke="none" 
	d="
M365.504120,454.144806 
	C364.778076,452.400635 364.096069,450.541534 364.046539,448.665680 
	C363.780121,438.577667 363.670929,428.485535 363.196716,418.089600 
	C363.111694,417.522003 363.337433,417.259644 363.806458,416.880371 
	C374.077667,411.840942 384.105591,406.918457 394.475281,401.913422 
	C394.884064,413.923218 394.951141,426.015533 395.052002,438.579163 
	C385.337189,444.040985 375.588623,449.031555 365.504120,454.144806 
z"/>
<path fill="#796238" opacity="1.000000" stroke="none" 
	d="
M459.180847,407.165161 
	C448.669220,412.440674 438.157593,417.716156 427.275238,423.037048 
	C426.932465,410.703796 426.960480,398.325104 427.014099,385.479553 
	C435.087463,381.143890 443.124420,377.252380 451.190796,373.422913 
	C453.118530,372.507660 455.144440,371.799255 457.535431,371.446869 
	C457.958130,381.961670 457.915680,392.026001 458.036469,402.088348 
	C458.056854,403.784943 458.781555,405.473114 459.180847,407.165161 
z"/>
<path fill="#3B2D18" opacity="1.000000" stroke="none" 
	d="
M363.917542,268.265350 
	C363.917572,268.265350 363.964783,268.318268 363.670105,268.358948 
	C363.252106,268.534485 363.128754,268.669373 363.005402,268.804260 
	C353.207642,273.537903 343.409882,278.271545 332.928009,283.335724 
	C332.928009,271.077850 332.928009,259.512604 332.941681,247.243637 
	C332.955353,246.539948 332.900696,246.043167 333.225708,245.896255 
	C343.638367,240.837555 353.726013,235.925781 363.879028,231.477661 
	C363.935455,244.049332 363.926514,256.157349 363.917542,268.265350 
z"/>
<path fill="#6B5839" opacity="1.000000" stroke="none" 
	d="
M300.893921,298.678955 
	C291.024414,294.380280 281.217529,289.604767 271.041626,284.667664 
	C270.529724,284.390717 270.411713,284.253967 270.280426,283.578918 
	C270.266235,271.033875 270.290131,259.005737 270.654785,247.025864 
	C281.026093,252.082504 291.056641,257.090851 301.087189,262.099213 
	C301.043640,274.133545 301.000122,286.167847 300.893921,298.678955 
z"/>
<path fill="#452F15" opacity="1.000000" stroke="none" 
	d="
M301.403442,261.939148 
	C291.056641,257.090851 281.026093,252.082504 270.528564,246.822021 
	C270.061615,246.569901 269.949127,246.104904 270.114899,245.796249 
	C271.950653,244.442154 273.558899,243.278076 275.301086,242.371368 
	C283.834351,237.930313 292.403229,233.557724 301.292572,229.097855 
	C302.073639,228.978058 302.521698,228.921341 303.034149,229.214020 
	C310.741577,233.712601 318.409576,237.816864 326.011505,242.040024 
	C328.126770,243.215149 330.046539,244.742218 332.018616,246.319733 
	C331.981201,246.531631 331.899902,246.954269 331.899902,246.954285 
	C321.839844,251.895874 311.779785,256.837463 301.403442,261.939148 
z"/>
<path fill="#D5C601" opacity="1.000000" stroke="none" 
	d="
M363.081421,269.036316 
	C363.128754,268.669373 363.252106,268.534485 363.649475,268.387756 
	C363.931580,268.645050 363.939606,268.914124 363.879944,269.581116 
	C363.529144,269.801941 363.310852,269.565033 363.081421,269.036316 
z"/>
<path fill="#D5C601" opacity="1.000000" stroke="none" 
	d="
M332.127411,246.976379 
	C331.899902,246.954269 331.981201,246.531631 332.228485,246.286713 
	C332.475769,246.041809 332.900696,246.043167 332.900696,246.043167 
	C332.900696,246.043167 332.955353,246.539948 332.883484,246.779510 
	C332.811584,247.019073 332.354919,246.998474 332.127411,246.976379 
z"/>
<path fill="#9E7D49" opacity="1.000000" stroke="none" 
	d="
M459.524536,407.079559 
	C458.781555,405.473114 458.056854,403.784943 458.036469,402.088348 
	C457.915680,392.026001 457.958130,381.961670 457.903839,371.425903 
	C457.895355,370.771484 457.928741,370.589172 458.001709,370.131714 
	C468.423523,364.752625 478.805664,359.648743 489.571869,354.476868 
	C489.923920,365.173828 489.921204,375.939026 489.830902,386.703491 
	C489.816010,388.481720 489.417969,390.256714 489.007324,392.388489 
	C479.167877,397.493835 469.518036,402.243896 459.524536,407.079559 
z"/>
<path fill="#3D2F1B" opacity="1.000000" stroke="none" 
	d="
M332.983826,431.532959 
	C332.962860,432.177124 332.921539,432.352722 332.832977,432.795593 
	C322.471558,437.999817 312.157379,442.936707 301.496338,447.912231 
	C301.149475,447.950897 300.993469,448.013123 300.969177,447.565308 
	C300.970612,435.080811 300.996338,423.044098 301.022064,411.007416 
	C301.022064,411.007416 301.035248,411.078369 301.071350,411.086914 
	C310.813995,406.414215 320.520508,401.732941 330.891724,397.014709 
	C331.970673,396.989685 332.384888,397.001587 332.799103,397.013519 
	C332.853882,408.363800 332.908661,419.714111 332.983826,431.532959 
z"/>
<path fill="#4A3C26" opacity="1.000000" stroke="none" 
	d="
M332.874329,396.764587 
	C332.384888,397.001587 331.970673,396.989685 331.245697,396.952576 
	C331.380371,396.642120 331.825836,396.356842 332.544037,396.042236 
	C332.861053,396.180450 332.905304,396.348053 332.874329,396.764587 
z"/>
<path fill="#FFFE00" opacity="1.000000" stroke="none" 
	d="
M489.004456,167.903442 
	C489.244598,172.813965 489.603607,177.722214 489.696716,182.635513 
	C489.832123,189.781113 489.775970,196.930328 489.876953,204.541794 
	C479.558868,210.006241 469.165344,215.006897 458.333069,219.537170 
	C457.846985,207.383987 457.799622,195.701202 457.858948,183.798889 
	C457.965668,183.579361 458.050659,183.098633 458.416504,183.046204 
	C468.856354,177.963669 478.930389,172.933548 489.004456,167.903442 
z"/>
<path fill="#362813" opacity="1.000000" stroke="none" 
	d="
M457.752258,184.018402 
	C457.799622,195.701202 457.846985,207.383987 457.956543,219.531738 
	C457.841736,220.276230 457.787140,220.577759 457.782776,221.117737 
	C447.749481,226.232880 437.788330,231.131607 427.437378,235.642700 
	C427.018890,223.508865 426.990173,211.762665 427.135986,199.716644 
	C437.457764,194.284027 447.605011,189.151215 457.752258,184.018402 
z"/>
<path fill="#513E23" opacity="1.000000" stroke="none" 
	d="
M426.961456,200.016449 
	C426.990173,211.762665 427.018890,223.508865 427.090668,235.735626 
	C427.133728,236.216156 427.110229,236.636353 426.797150,236.804474 
	C426.072327,237.107986 425.660614,237.243378 425.248871,237.378769 
	C415.405365,242.259079 405.561890,247.139404 395.352844,251.571564 
	C394.951355,239.103256 394.915375,227.083115 395.205444,214.914536 
	C402.210785,211.418152 408.846802,207.979706 415.586517,204.758118 
	C419.287964,202.988831 423.164093,201.585022 426.961456,200.016449 
z"/>
<path fill="#FFFE00" opacity="1.000000" stroke="none" 
	d="
M394.879395,215.062958 
	C394.915375,227.083115 394.951355,239.103256 394.988220,251.598572 
	C394.989105,252.073746 394.902618,252.476654 394.909119,252.681519 
	C384.785675,257.862762 374.655701,262.839111 364.221619,268.040405 
	C363.926514,256.157349 363.935455,244.049332 364.059509,231.160507 
	C374.131073,225.290726 384.087555,220.201767 394.251770,215.081589 
	C394.459503,215.050385 394.879395,215.062958 394.879395,215.062958 
z"/>
<path fill="#AA8C55" opacity="1.000000" stroke="none" 
	d="
M425.479370,237.543488 
	C425.660614,237.243378 426.072327,237.107986 426.716034,236.998627 
	C426.967468,237.205444 426.986938,237.386215 426.894592,237.815430 
	C426.425171,237.945343 426.067535,237.826767 425.479370,237.543488 
z"/>
<path fill="#8F7146" opacity="1.000000" stroke="none" 
	d="
M238.832245,454.320007 
	C228.340561,449.692322 217.868240,444.617981 207.164627,439.288086 
	C206.955795,426.999084 206.978241,414.965607 207.370758,402.513000 
	C216.009811,406.151733 224.249771,410.270752 232.569992,414.220703 
	C234.440063,415.108490 236.590408,415.405884 238.611740,415.975098 
	C238.691696,428.607819 238.771652,441.240601 238.832245,454.320007 
z"/>
<path fill="#95774C" opacity="1.000000" stroke="none" 
	d="
M238.705933,415.515747 
	C236.590408,415.405884 234.440063,415.108490 232.569992,414.220703 
	C224.249771,410.270752 216.009811,406.151733 207.385895,402.044220 
	C207.018707,389.977325 207.006454,377.960052 207.010529,365.475281 
	C215.309631,368.985748 223.573853,373.003174 231.889175,376.911896 
	C233.787491,377.804199 235.862259,378.321167 238.204651,379.018768 
	C238.635681,391.036560 238.717896,403.046478 238.705933,415.515747 
z"/>
<path fill="#8F7146" opacity="1.000000" stroke="none" 
	d="
M300.661133,410.961121 
	C300.996338,423.044098 300.970612,435.080811 300.888428,447.588379 
	C292.769470,444.145020 284.716003,440.211975 276.637421,436.331116 
	C274.855774,435.475250 272.985229,434.804413 270.827393,434.045563 
	C270.389832,422.031342 270.280579,410.019928 270.238007,397.552704 
	C274.517029,398.888031 278.780365,400.569366 282.929474,402.496704 
	C288.764160,405.207062 294.514069,408.099945 300.661133,410.961121 
z"/>
<path fill="#3E311E" opacity="1.000000" stroke="none" 
	d="
M144.464005,409.020935 
	C144.055161,408.559479 144.014969,408.101257 143.966125,406.836670 
	C144.016739,394.023315 144.076004,382.016296 144.135284,370.009277 
	C154.491287,374.973694 164.847305,379.938141 175.549927,384.956177 
	C175.915131,397.370605 175.933716,409.731415 175.908295,422.562927 
	C170.755554,420.776093 165.632294,418.550690 160.542084,416.252075 
	C155.288864,413.879883 150.067780,411.436493 144.464005,409.020935 
z"/>
<path fill="#977A4E" opacity="1.000000" stroke="none" 
	d="
M144.083252,369.542206 
	C144.076004,382.016296 144.016739,394.023315 143.923111,406.494324 
	C139.653778,405.170166 135.363068,403.501801 131.197205,401.564972 
	C125.339371,398.841492 119.574173,395.918701 113.419060,393.019531 
	C113.053658,368.290131 113.038559,343.622375 113.056686,318.489410 
	C121.116859,321.878479 129.133072,325.755341 137.178558,329.570465 
	C139.101242,330.482208 141.121536,331.188080 143.457184,332.006531 
	C143.888687,344.374664 143.959946,356.724884 144.083252,369.542206 
z"/>
<path fill="#78603F" opacity="1.000000" stroke="none" 
	d="
M207.316162,252.918228 
	C206.953751,252.843445 206.875854,252.537750 206.901077,252.056625 
	C206.874420,251.364166 206.822540,251.152832 206.813446,250.478607 
	C206.841522,238.387512 206.826813,226.759293 207.161026,215.207001 
	C218.010742,220.416687 228.511536,225.550430 239.032440,230.779312 
	C239.052536,230.874451 238.978485,231.054306 238.898544,231.514053 
	C238.720306,244.012741 238.622009,256.051666 238.523712,268.090607 
	C228.242004,263.058075 217.960281,258.025543 207.316162,252.918228 
z"/>
<path fill="#F1E505" opacity="1.000000" stroke="none" 
	d="
M238.639252,268.306519 
	C238.622009,256.051666 238.720306,244.012741 239.246765,231.595337 
	C249.766342,236.179550 259.857727,241.142227 269.949127,246.104904 
	C269.949127,246.104904 270.061615,246.569901 270.187836,246.773743 
	C270.290131,259.005737 270.266235,271.033875 270.155029,283.522217 
	C259.944336,279.011902 249.820984,274.041412 239.336945,269.015015 
	C238.976273,268.959137 238.754776,268.522400 238.639252,268.306519 
z"/>
<path fill="#58472E" opacity="1.000000" stroke="none" 
	d="
M144.319565,221.050629 
	C144.020218,220.860565 144.006897,220.468307 143.982574,219.802963 
	C144.023514,207.417908 144.088776,195.698181 144.501648,184.035645 
	C146.490097,184.855179 148.138565,185.601532 149.770462,186.382523 
	C158.519165,190.569443 167.263718,194.765015 176.012604,199.203033 
	C176.015472,199.448486 175.991837,199.938828 175.944824,200.409393 
	C175.916046,212.565475 175.934296,224.251007 175.952545,235.936539 
	C173.954865,235.287003 171.846130,234.864151 169.978577,233.949051 
	C161.488220,229.788712 153.065781,225.489777 144.319565,221.050629 
z"/>
<path fill="#F1E505" opacity="1.000000" stroke="none" 
	d="
M176.006973,236.196793 
	C175.934296,224.251007 175.916046,212.565475 176.314789,200.442566 
	C186.758560,205.047165 196.785339,210.089127 206.812103,215.131088 
	C206.826813,226.759293 206.841522,238.387512 206.493393,250.501144 
	C205.706116,251.040604 205.281662,251.094635 204.857224,251.148651 
	C195.468658,246.530258 186.080093,241.911865 176.384537,237.141022 
	C176.072159,236.811401 176.066772,236.634216 176.006973,236.196793 
z"/>
<path fill="#F1E505" opacity="1.000000" stroke="none" 
	d="
M144.154037,183.978470 
	C144.088776,195.698181 144.023514,207.417908 143.917114,219.617981 
	C137.564682,217.221664 131.237717,214.378738 124.948006,211.455643 
	C121.187485,209.707977 117.485313,207.834778 113.412628,205.911469 
	C113.068329,205.804947 113.044106,205.360504 112.998749,205.142654 
	C113.030144,192.776031 113.106888,180.627243 113.745476,168.605682 
	C124.185745,173.527802 134.064163,178.322723 143.976379,183.337555 
	C144.010178,183.557449 144.154037,183.978470 144.154037,183.978470 
z"/>
<path fill="#D0C205" opacity="1.000000" stroke="none" 
	d="
M205.034866,251.397308 
	C205.281662,251.094635 205.706116,251.040604 206.450607,250.964035 
	C206.822540,251.152832 206.874420,251.364166 206.933868,251.902344 
	C206.365143,252.034775 205.788818,251.840347 205.034866,251.397308 
z"/>
<path fill="#433017" opacity="1.000000" stroke="none" 
	d="
M143.942581,183.117661 
	C134.064163,178.322723 124.185745,173.527802 114.135544,168.426758 
	C115.372635,166.881180 116.611397,165.328720 118.219055,164.455002 
	C126.333054,160.045181 134.543121,155.812149 142.887421,151.208710 
	C143.465973,150.935455 143.876617,150.970596 144.785049,151.321701 
	C155.220001,156.741394 165.157135,161.845108 174.770081,167.098160 
	C164.278107,172.537552 154.110352,177.827606 143.942581,183.117661 
z"/>
<path fill="#A4874F" opacity="1.000000" stroke="none" 
	d="
M176.016296,135.991013 
	C186.433075,130.688110 196.849869,125.385216 207.840302,120.296997 
	C218.292847,125.347534 228.171722,130.183380 238.252991,135.287277 
	C248.968460,140.704147 259.481537,145.852982 270.204895,151.271378 
	C274.379974,153.580750 278.374908,155.564407 282.302307,157.673737 
	C287.943329,160.703415 293.535156,163.824677 298.783508,166.977722 
	C295.652954,168.511673 292.889557,169.979889 290.120239,171.436844 
	C283.411346,174.966461 276.699707,178.490845 269.631104,181.968048 
	C267.622131,181.167191 265.956818,180.445526 264.322723,179.659073 
	C255.550461,175.437210 246.785965,171.199203 237.799652,166.705917 
	C227.061340,161.284485 216.542191,156.123886 205.803162,150.701996 
	C195.727600,145.624130 185.871948,140.807571 176.016296,135.991013 
z"/>
<path fill="#BD9A64" opacity="1.000000" stroke="none" 
	d="
M175.681152,135.994354 
	C185.871948,140.807571 195.727600,145.624130 205.586823,150.971802 
	C195.741333,156.616013 185.892288,161.729080 175.809174,166.897110 
	C175.575119,166.952072 175.094284,166.948822 175.094284,166.948822 
	C165.157135,161.845108 155.220001,156.741394 145.093887,151.340302 
	C154.460541,146.205322 164.016159,141.367706 173.788940,136.266571 
	C174.452728,136.001282 174.899368,135.999496 175.681152,135.994354 
z"/>
<path fill="#A0834C" opacity="1.000000" stroke="none" 
	d="
M238.050613,135.019241 
	C228.171722,130.183380 218.292847,125.347534 208.197327,120.243713 
	C217.847214,114.828575 227.713730,109.681404 237.794922,104.267975 
	C238.009567,104.001717 238.502686,104.003975 238.967209,104.268875 
	C249.284454,109.684578 259.137177,114.835388 268.675140,120.137123 
	C258.257111,125.198448 248.153870,130.108841 238.050613,135.019241 
z"/>
<path fill="#A0834C" opacity="1.000000" stroke="none" 
	d="
M301.773621,72.980568 
	C322.216278,83.135406 342.399475,93.297295 362.581940,103.989212 
	C356.557343,107.596603 350.491730,110.595825 344.525208,113.780624 
	C340.936005,115.696465 337.501099,117.901398 333.638306,119.935707 
	C331.320099,118.989929 329.349091,118.108688 327.402832,117.175728 
	C318.264404,112.795135 309.132782,108.400337 299.785156,103.744156 
	C289.712341,98.651802 279.853119,93.825905 269.993896,89.000000 
	C269.993896,89.000000 269.997711,88.500389 270.000732,88.250603 
	C280.123444,83.095520 290.243134,78.190224 300.678955,73.135971 
	C301.168121,72.987206 301.341156,72.987411 301.773621,72.980568 
z"/>
<path fill="#AA8C55" opacity="1.000000" stroke="none" 
	d="
M269.635864,89.046059 
	C279.853119,93.825905 289.712341,98.651802 299.570679,104.008438 
	C289.376465,109.688179 279.183197,114.837189 268.989899,119.986191 
	C259.137177,114.835388 249.284454,109.684578 239.213745,104.271973 
	C249.089783,99.037498 259.183777,94.064804 269.635864,89.046059 
z"/>
<path fill="#452F15" opacity="1.000000" stroke="none" 
	d="
M488.930420,167.570435 
	C478.930389,172.933548 468.856354,177.963669 458.205872,182.769180 
	C447.385315,177.346741 437.141235,172.148926 426.897156,166.951111 
	C437.344421,161.648651 447.791687,156.346176 458.598663,150.986298 
	C467.308258,155.286606 475.674194,159.613998 483.994690,164.027069 
	C485.702454,164.932816 487.240265,166.158966 488.930420,167.570435 
z"/>
<path fill="#A2854E" opacity="1.000000" stroke="none" 
	d="
M426.622040,134.954132 
	C423.511383,136.913467 420.098358,138.931030 416.568329,140.717453 
	C399.538757,149.335571 382.477692,157.891434 364.879425,166.735657 
	C363.886658,166.999664 363.442261,166.997375 362.782227,166.731430 
	C352.717346,161.322464 342.868103,156.177155 333.331726,150.876282 
	C343.755859,145.481247 353.867188,140.241776 364.338440,134.955933 
	C374.806244,129.929398 384.914124,124.949226 395.021973,119.969070 
	C395.021973,119.969070 395.505310,119.970612 395.746704,119.961761 
	C406.080658,124.937225 416.173187,129.921539 426.622040,134.954132 
z"/>
<path fill="#AA8C55" opacity="1.000000" stroke="none" 
	d="
M394.798889,119.711472 
	C384.914124,124.949226 374.806244,129.929398 363.982117,134.909210 
	C353.509521,129.931366 343.753174,124.953888 333.996857,119.976410 
	C337.501099,117.901398 340.936005,115.696465 344.525208,113.780624 
	C350.491730,110.595825 356.557343,107.596603 362.798706,104.253464 
	C373.536102,109.143097 384.055939,114.298492 394.798889,119.711472 
z"/>
<path fill="#453722" opacity="1.000000" stroke="none" 
	d="
M426.538269,166.985886 
	C437.141235,172.148926 447.385315,177.346741 457.840027,182.821594 
	C458.050659,183.098633 457.965668,183.579361 457.858948,183.798889 
	C447.605011,189.151215 437.457764,194.284027 427.135986,199.716644 
	C423.164093,201.585022 419.287964,202.988831 415.586517,204.758118 
	C408.846802,207.979706 402.210785,211.418152 395.205444,214.914536 
	C394.879395,215.062958 394.459503,215.050385 394.181610,214.734039 
	C392.475616,213.379456 391.149719,212.146240 389.602448,211.335403 
	C381.116974,206.888641 372.577271,202.545410 364.361877,197.987793 
	C374.116425,192.897400 383.565277,187.985840 393.014130,183.074280 
	C404.069214,177.723068 415.124268,172.371872 426.538269,166.985886 
z"/>
<path fill="#B1945E" opacity="1.000000" stroke="none" 
	d="
M392.951233,182.727295 
	C383.565277,187.985840 374.116425,192.897400 364.127899,197.935577 
	C363.588226,198.062210 363.109344,198.050476 362.783295,197.902130 
	C352.971283,192.818237 343.485321,187.882706 334.169342,182.654785 
	C336.161530,181.269363 337.937317,180.088272 339.814056,179.098648 
	C347.525299,175.032455 355.267242,171.024490 362.997864,166.995117 
	C363.442261,166.997375 363.886658,166.999664 364.664307,167.000519 
	C372.719940,171.023895 380.462830,175.010300 388.148712,179.103592 
	C389.832672,180.000397 391.313782,181.278046 392.951233,182.727295 
z"/>
<path fill="#503515" opacity="1.000000" stroke="none" 
	d="
M363.109344,198.050476 
	C363.109344,198.050476 363.588226,198.062210 363.822205,198.114410 
	C372.577271,202.545410 381.116974,206.888641 389.602448,211.335403 
	C391.149719,212.146240 392.475616,213.379456 393.973877,214.765244 
	C384.087555,220.201767 374.131073,225.290726 363.994141,230.696854 
	C353.726013,235.925781 343.638367,240.837555 333.225708,245.896255 
	C332.900696,246.043167 332.475769,246.041809 332.265869,246.074829 
	C330.046539,244.742218 328.126770,243.215149 326.011505,242.040024 
	C318.409576,237.816864 310.741577,233.712601 303.223846,228.927887 
	C307.032715,226.473343 310.733948,224.689133 314.396820,222.829315 
	C330.640350,214.581558 346.872833,206.312088 363.109344,198.050476 
z"/>
<path fill="#B99E64" opacity="1.000000" stroke="none" 
	d="
M362.783295,197.902130 
	C346.872833,206.312088 330.640350,214.581558 314.396820,222.829315 
	C310.733948,224.689133 307.032715,226.473343 303.159424,228.578491 
	C302.521698,228.921341 302.073639,228.978058 300.937866,229.010620 
	C289.852020,223.952347 279.453918,218.918243 268.861969,213.596619 
	C266.462646,212.207977 264.251526,211.117950 262.052521,210.003983 
	C244.328964,201.025452 226.607697,192.042419 209.198181,182.899139 
	C216.100357,179.277145 222.724365,175.879898 229.264450,172.328140 
	C232.267441,170.697311 235.105789,168.763290 238.018799,166.966766 
	C246.785965,171.199203 255.550461,175.437210 264.322723,179.659073 
	C265.956818,180.445526 267.622131,181.167191 269.847900,182.231354 
	C279.780609,187.281860 289.071655,192.161713 298.557129,196.628601 
	C300.294098,197.446579 303.122559,197.230743 304.933624,196.388199 
	C313.385315,192.456314 321.656891,188.137329 330.316467,183.828308 
	C331.759827,183.448959 332.879578,183.198059 333.999359,182.947159 
	C343.485321,187.882706 352.971283,192.818237 362.783295,197.902130 
z"/>
<path fill="#41331F" opacity="1.000000" stroke="none" 
	d="
M269.055786,213.884125 
	C279.453918,218.918243 289.852020,223.952347 300.604858,229.073700 
	C292.403229,233.557724 283.834351,237.930313 275.301086,242.371368 
	C273.558899,243.278076 271.950653,244.442154 270.114899,245.796249 
	C259.857727,241.142227 249.766342,236.179550 239.326721,231.135590 
	C238.978485,231.054306 239.052536,230.874451 239.118896,230.468994 
	C240.979462,228.949921 242.716843,227.729340 244.577652,226.741211 
	C252.717514,222.418747 260.893127,218.163635 269.055786,213.884125 
z"/>
<path fill="#433017" opacity="1.000000" stroke="none" 
	d="
M268.861969,213.596603 
	C260.893127,218.163635 252.717514,222.418747 244.577652,226.741211 
	C242.716843,227.729340 240.979462,228.949921 239.098816,230.373840 
	C228.511536,225.550430 218.010742,220.416687 207.161041,215.207001 
	C196.785339,210.089127 186.758560,205.047165 176.361816,199.972015 
	C175.991837,199.938828 176.015472,199.448486 176.181564,198.909912 
	C186.598999,193.233902 196.850327,188.096466 207.398880,182.978607 
	C208.092651,183.019043 208.489182,183.039902 208.885727,183.060760 
	C226.607697,192.042419 244.328964,201.025452 262.052521,210.003983 
	C264.251526,211.117950 266.462646,212.207977 268.861969,213.596603 
z"/>
<path fill="#3E311E" opacity="1.000000" stroke="none" 
	d="
M207.101654,182.959030 
	C196.850327,188.096466 186.598999,193.233902 176.178680,198.664459 
	C167.263718,194.765015 158.519165,190.569443 149.770462,186.382523 
	C148.138565,185.601532 146.490097,184.855179 144.501648,184.035645 
	C144.154037,183.978470 144.010178,183.557449 143.976379,183.337555 
	C154.110352,177.827606 164.278107,172.537552 174.770081,167.098160 
	C175.094284,166.948822 175.575119,166.952072 176.118988,167.072037 
	C186.809113,172.447678 196.955383,177.703354 207.101654,182.959030 
z"/>
<path fill="#BD9A64" opacity="1.000000" stroke="none" 
	d="
M333.638306,119.935699 
	C343.753174,124.953888 353.509521,129.931366 363.622192,134.955566 
	C353.867188,140.241776 343.755859,145.481247 333.084717,150.868164 
	C332.524933,151.015594 332.031372,151.006607 331.710999,150.862671 
	C322.772675,146.404938 314.078644,142.233948 305.574707,137.705963 
	C302.245544,135.933350 299.538391,136.068680 296.269531,137.792297 
	C287.599915,142.363617 278.764221,146.620087 269.994598,151.001831 
	C259.481537,145.852982 248.968460,140.704147 238.252991,135.287277 
	C248.153870,130.108841 258.257111,125.198448 268.675140,120.137115 
	C279.183197,114.837189 289.376465,109.688179 299.784241,104.274887 
	C309.132782,108.400337 318.264404,112.795135 327.402832,117.175728 
	C329.349091,118.108688 331.320099,118.989929 333.638306,119.935699 
z"/>
<path fill="#BF9E65" opacity="1.000000" stroke="none" 
	d="
M207.398880,182.978607 
	C196.955383,177.703354 186.809113,172.447678 176.353027,167.017075 
	C185.892288,161.729080 195.741333,156.616013 205.806717,151.233124 
	C216.542191,156.123886 227.061340,161.284485 237.799652,166.705902 
	C235.105789,168.763290 232.267441,170.697311 229.264450,172.328140 
	C222.724365,175.879898 216.100357,179.277145 209.198181,182.899139 
	C208.489182,183.039902 208.092651,183.019043 207.398880,182.978607 
z"/>
<path fill="#C4A16B" opacity="1.000000" stroke="none" 
	d="
M270.204895,151.271393 
	C278.764221,146.620087 287.599915,142.363617 296.269531,137.792297 
	C299.538391,136.068680 302.245544,135.933350 305.574707,137.705963 
	C314.078644,142.233948 322.772675,146.404938 331.495911,151.131012 
	C321.734894,156.696915 311.868683,161.850571 301.643738,167.002014 
	C300.572693,166.968842 299.860321,166.937851 299.147980,166.906860 
	C293.535156,163.824677 287.943329,160.703415 282.302307,157.673737 
	C278.374908,155.564407 274.379974,153.580750 270.204895,151.271393 
z"/>
<path fill="#A2854E" opacity="1.000000" stroke="none" 
	d="
M298.783508,166.977722 
	C299.860321,166.937851 300.572693,166.968842 301.853790,167.264191 
	C310.295441,171.692047 318.210846,175.778534 326.005463,180.083786 
	C327.570282,180.948090 328.675690,182.644165 329.992889,183.956741 
	C321.656891,188.137329 313.385315,192.456314 304.933624,196.388199 
	C303.122559,197.230743 300.294098,197.446579 298.557129,196.628601 
	C289.071655,192.161713 279.780609,187.281860 270.205933,182.280655 
	C276.699707,178.490845 283.411346,174.966461 290.120239,171.436844 
	C292.889557,169.979889 295.652954,168.511673 298.783508,166.977722 
z"/>
<path fill="#A4874F" opacity="1.000000" stroke="none" 
	d="
M330.316467,183.828308 
	C328.675690,182.644165 327.570282,180.948090 326.005463,180.083786 
	C318.210846,175.778534 310.295441,171.692047 302.212494,167.266388 
	C311.868683,161.850571 321.734894,156.696915 331.816254,151.274933 
	C332.031372,151.006607 332.524933,151.015594 332.771912,151.023727 
	C342.868103,156.177155 352.717346,161.322464 362.782227,166.731445 
	C355.267242,171.024490 347.525299,175.032455 339.814056,179.098648 
	C337.937317,180.088272 336.161530,181.269363 334.169342,182.654785 
	C332.879578,183.198059 331.759827,183.448959 330.316467,183.828308 
z"/>
</svg>